# xmcd
#
# Track frame offsets: 
#        150
#        19675
#        41638
#        63473
#        81808
#        103650
#        122260
#        135798
#        160253
#        178630
#
# Disc length: 2559 seconds
#
# Revision: 8
# Processed by: cddbd v1.5.2PL0 Copyright (c) Steve Scherf et al.
# Submitted via: ExactAudioCopyFreeDBPlugin 1.0
#
DISCID=7309fd0a
DTITLE=The Jayhawks - Hollywood Town Hall
DYEAR=1992
DGENRE=Rock
TTITLE0=Waiting For The Sun
TTITLE1=Crowded In The Wings
TTITLE2=Clouds
TTITLE3=Two Angels
TTITLE4=Take Me With You (When You Go)
TTITLE5=Sister Cry
TTITLE6=Settled Down Like Rain
TTITLE7=Wichita
TTITLE8=Nevada, California
TTITLE9=Martin's Song
EXTD=YEAR: 1992
EXTT0=
EXTT1=
EXTT2=
EXTT3=
EXTT4=
EXTT5=
EXTT6=
EXTT7=
EXTT8=
EXTT9=
PLAYORDER=
